# xmcd
#
# Track frame offsets:
#	150
#	18550
#	31522
#	47096
#	66341
#	85158
#	103045
#	119412
#	133654
#	150413
#
# Disc length: 2216 seconds
#
# Revision: 1
# Processed by: cddbd v1.5.2PL0 Copyright (c) Steve Scherf et al.
# Submitted via: EasyCDDAExtractor 15.3.0.1
#
DISCID=7a08a60a
DTITLE=Pandora - Buenaventura
DYEAR=1988
DGENRE=Latin
TTITLE0=Hay Que Empezar Desde Abajo
TTITLE1=Sin Ti
TTITLE2=Atrapada
TTITLE3=Reflejos
TTITLE4=Amor Canalla
TTITLE5=No Puedo Dejar De Pensar En Ti
TTITLE6=Basta Enamorarse Nuevamente
TTITLE7=Flor De Verano
TTITLE8=Los Escalofrios No Mienten (Chills Never Lie)
TTITLE9=Buenaventura
EXTD=
EXTT0=
EXTT1=
EXTT2=
EXTT3=
EXTT4=
EXTT5=
EXTT6=
EXTT7=
EXTT8=
EXTT9=
PLAYORDER=
